<svg width="200" height="200" viewBox="0 0 200 200" fill="none" xmlns="http://www.w3.org/2000/svg">
<path d="M157.28 137.5C149.82 137.3 144.03 138.07 139.18 140.161C137.78 140.73 135.55 140.73 135.36 142.54C136.11 143.29 136.2 144.53 136.86 145.58C137.97 147.48 139.93 150.04 141.7 151.38C143.66 152.89 145.62 154.41 147.68 155.74C151.31 158.03 155.42 159.35 158.96 161.64C161.02 162.96 163.06 164.67 165.12 166.1C166.14 166.86 166.79 168.1 168.1 168.57V168.28C167.44 167.43 167.26 166.19 166.61 165.24C165.68 164.29 164.74 163.44 163.81 162.49C161.085 158.814 157.814 155.577 154.11 152.89C151.12 150.79 144.59 147.95 143.38 144.44L143.19 144.24C145.25 144.06 147.68 143.29 149.63 142.72C152.8 141.86 155.69 142.06 158.96 141.2C160.46 140.82 161.94 140.34 163.44 139.88V139C161.75 137.3 160.54 135.01 158.78 133.4C153.955 129.113 148.807 125.205 143.38 121.71C140.48 119.81 136.76 118.58 133.68 116.96C132.56 116.39 130.7 116.11 130.04 115.16C128.37 113.06 127.43 110.31 126.22 107.84C123.459 102.427 120.907 96.9095 118.57 91.3004C116.89 87.6004 115.87 83.9004 113.82 80.4703C104.2 64.3203 93.7599 54.5404 77.7199 44.9404C74.2599 42.9404 70.1599 42.0805 65.78 41.0404C63.4499 40.9404 61.1199 40.7504 58.78 40.6603C57.28 39.9904 55.7898 38.1904 54.49 37.3303C49.1699 33.9103 35.4699 26.5004 31.5499 36.2904C29.03 42.4703 35.28 48.5504 37.4199 51.6904C39.0099 53.8703 41.0599 56.3404 42.18 58.8103C42.83 60.4203 43.0199 62.1404 43.68 63.8504C45.1599 68.0305 46.5599 72.6805 48.5199 76.5805C49.5499 78.5805 50.6599 80.6703 51.9699 82.4703C52.7199 83.5203 54.0199 83.9904 54.3099 85.7004C53.0099 87.6004 52.9099 90.4504 52.1599 92.8305C48.7999 103.57 50.0999 116.87 54.8599 124.75C56.3599 127.13 59.8999 132.35 64.6599 130.35C68.8599 128.65 67.9199 123.23 69.13 118.48C69.4099 117.34 69.23 116.58 69.78 115.82V116.02C71.09 118.67 72.3999 121.23 73.6101 123.9C76.5099 128.55 81.5398 133.4 85.74 136.63C87.9699 138.34 89.74 141.29 92.54 142.33V142.05H92.3599C91.7999 141.19 90.9599 140.81 90.2099 140.15C88.4428 138.384 86.8209 136.477 85.3599 134.45C81.4078 128.982 77.9158 123.196 74.9199 117.15C73.4199 114.2 72.1199 110.97 70.9101 108.03C70.3499 106.89 70.3499 105.18 69.4101 104.611C68.0099 106.7 65.9599 108.51 64.94 111.06C63.1699 115.16 62.98 120.19 62.3199 125.42C61.9499 125.52 62.14 125.42 61.9499 125.61C58.9699 124.85 57.9499 121.71 56.8199 119.06C54.0199 112.3 53.5499 101.47 55.98 93.6805C56.63 91.6805 59.44 85.4203 58.3199 83.5203C57.7499 81.7004 55.89 80.6703 54.8599 79.2404C53.5592 77.3207 52.4378 75.2855 51.5099 73.1603C49.2699 67.8404 48.14 61.9404 45.73 56.6203C44.6099 54.1504 42.64 51.5805 41.0601 49.3103C39.29 46.7404 37.33 44.9404 35.93 41.9004C35.4699 40.8504 34.8099 39.1404 35.5599 38.0004C35.74 37.2404 36.1199 36.9504 36.8599 36.7603C38.0699 35.7203 41.5298 37.0504 42.74 37.6203C46.19 39.0402 49.0798 40.3805 51.9699 42.3703C53.2699 43.3203 54.6699 45.1203 56.3499 45.6004H58.3199C61.2999 46.2605 64.6599 45.7904 67.4599 46.6504C72.1953 48.2575 76.708 50.4584 80.89 53.2004C93.2904 61.2732 103.331 72.4869 109.99 85.7004C111.11 87.8805 111.58 89.8805 112.6 92.1603C114.56 96.8205 116.99 101.57 118.94 106.13C120.9 110.6 122.77 115.15 125.57 118.86C126.97 120.86 132.57 121.9 135.08 122.95C136.95 123.8 139.84 124.56 141.52 125.611C144.69 127.6 147.86 129.88 150.85 132.07C152.33 133.21 157 135.59 157.28 137.49V137.5Z" fill="#0A5AF6"/>
<path d="M62.8406 54.2205C62.656 54.0321 62.4045 53.9243 62.1408 53.9205C60.7576 53.909 59.379 54.0805 58.0408 54.4306C57.8277 54.488 57.6396 54.6142 57.5058 54.7897C57.3719 54.9651 57.2998 55.1799 57.3008 55.4005V55.5906C57.3003 55.7704 57.3484 55.9471 57.4399 56.102C57.5314 56.2568 57.6629 56.3841 57.8207 56.4705C58.2207 57.1505 58.7008 57.7406 59.1508 58.2705L59.5309 58.6904C59.9309 59.1406 60.2906 59.5505 60.6008 60.0005C60.9608 60.7205 61.3008 61.4505 61.6408 62.1906L61.6809 62.2804L62.7207 64.4806C62.7902 64.6246 62.8933 64.7499 63.0212 64.8459C63.1491 64.9418 63.2982 65.0057 63.456 65.0322C63.6137 65.0586 63.7754 65.0468 63.9277 64.9978C64.0799 64.9488 64.2182 64.864 64.3309 64.7505C64.3782 64.7012 64.4248 64.6512 64.4707 64.6005C66.0707 63.4005 66.7707 61.5406 66.7707 59.1005C66.7684 58.8656 66.6835 58.6391 66.5309 58.4605C66.3184 58.1994 66.1496 57.9056 66.0309 57.5906C65.6468 56.5764 64.9453 55.7135 64.0309 55.1306L63.6908 54.8904C63.3309 54.6404 63.0607 54.4505 62.8408 54.2205" fill="#0A5AF6"/>
</svg>
