<svg width="200" height="200" viewBox="0 0 200 200" fill="none" xmlns="http://www.w3.org/2000/svg">
<path d="M135.08 36.6408H41.39C38.3707 36.6513 35.4782 37.856 33.3441 39.992C31.21 42.1279 30.0078 45.0215 30 48.0408V151.321C30 157.631 35.1801 162.721 41.4 162.721H103.07C102.41 132.121 112.96 72.5207 135.08 36.6406" fill="#0F80CC"/>
<path d="M156.931 33.2401C150.531 27.5001 142.711 29.86 135.081 36.6401C133.951 37.67 132.831 38.8001 131.701 39.9401C118.601 53.87 106.361 79.67 102.601 99.3401C104.101 102.36 105.231 106.12 105.981 109.04C106.181 109.8 106.361 110.46 106.461 111.11C106.831 112.53 106.931 113.47 106.931 113.47C106.931 113.47 106.831 113 106.371 111.59C106.271 111.3 106.171 111.03 106.081 110.65C105.981 110.46 105.981 110.36 105.891 110.17C105.051 108.2 102.691 103.97 101.661 102.17C100.811 104.8 99.9607 107.25 99.3008 109.51C102.321 114.97 104.101 124.49 104.101 124.49L103.161 121.75C102.501 119.87 99.1107 114.03 98.3607 112.62C97.0408 117.62 96.4808 121 96.9607 121.85C97.8908 123.45 98.8308 126.18 99.5808 129.19C101.381 136.07 102.601 144.36 102.601 144.36C102.601 144.36 102.601 144.92 102.701 145.76C102.445 151.475 102.568 157.201 103.071 162.9C103.631 170.06 104.761 176.18 106.171 179.47L107.121 178.91C105.051 172.41 104.201 164.03 104.581 154.24C105.141 139.36 108.531 121.29 114.931 102.54C125.671 74.2001 140.551 51.51 154.101 40.6901C141.681 51.8901 124.921 88.1401 119.921 101.61C114.271 116.67 110.321 130.79 107.871 144.26C112.011 131.55 125.391 126.18 125.391 126.18C125.391 126.18 131.971 118.08 139.601 106.5C134.991 107.54 127.451 109.32 124.921 110.46C121.151 112.06 120.201 112.52 120.201 112.52C120.201 112.52 132.261 105.18 142.711 101.79C157.111 79.1901 172.661 47.27 156.931 33.2401Z" fill="#003B57"/>
</svg>
