<svg width="1024" height="1024" viewBox="0 0 1024 1024" xmlns="http://www.w3.org/2000/svg">
  <defs>
    <linearGradient id="bg" x1="0" y1="0" x2="1024" y2="1024" gradientUnits="userSpaceOnUse">
      <stop offset="0" stop-color="#5b3ea3"/>
      <stop offset="1" stop-color="#7c3aed"/>
    </linearGradient>
  </defs>
  <rect width="1024" height="1024" rx="200" fill="#5b3ea3"/>
  <g transform="translate(192 192) scale(0.625)" fill="#ffffff">
    <path d="M170.667 512C170.667 421.473 206.628 334.653 270.641 270.641C334.653 206.628 421.473 170.667 512 170.667V341.333C466.736 341.333 423.327 359.314 391.32 391.32C359.314 423.327 341.333 466.736 341.333 512H170.667Z"/>
    <path d="M170.667 1024C170.667 933.473 206.629 846.653 270.641 782.641C334.654 718.628 421.473 682.667 512 682.667V853.333C466.737 853.333 423.327 871.314 391.321 903.32C359.315 935.327 341.334 978.736 341.334 1024H170.667Z"/>
    <path d="M853.333 512C853.333 421.473 817.372 334.653 753.359 270.641C689.347 206.628 602.527 170.667 512 170.667V341.333C557.264 341.333 600.673 359.314 632.68 391.32C664.686 423.327 682.667 466.736 682.667 512H853.333Z"/>
    <path d="M341.333 512C341.333 421.473 305.372 334.653 241.359 270.641C177.347 206.628 90.5272 170.667 0 170.667V341.333C45.2636 341.333 88.6734 359.314 120.68 391.32C152.686 423.327 170.667 466.736 170.667 512H341.333Z"/>
    <path d="M170.667 512C170.667 602.527 206.628 689.347 270.641 753.359C334.653 817.372 421.473 853.333 512 853.333V682.667C466.737 682.667 423.327 664.686 391.32 632.68C359.314 600.673 341.333 557.264 341.333 512H170.667Z"/>
    <path d="M682.667 512C682.667 602.527 718.628 689.347 782.641 753.359C846.653 817.372 933.473 853.333 1024 853.333V682.667C978.736 682.667 935.327 664.686 903.32 632.68C871.314 600.673 853.333 557.264 853.333 512H682.667Z"/>
    <path d="M853.333 512C853.333 602.527 817.372 689.347 753.359 753.359C689.347 817.372 602.528 853.333 512 853.333V682.667C557.264 682.667 600.673 664.686 632.68 632.68C664.686 600.673 682.667 557.264 682.667 512H853.333Z"/>
    <path d="M853.333 0C853.333 90.5272 817.372 177.347 753.359 241.359C689.347 305.372 602.527 341.333 512 341.333V170.667C557.264 170.667 600.673 152.686 632.68 120.68C664.686 88.6734 682.667 45.2636 682.667 0H853.333Z"/>
  </g>
</svg>