<svg width="3217" height="1024" viewBox="0 0 3217 1024" fill="none" xmlns="http://www.w3.org/2000/svg">
<path d="M170.667 512C170.667 421.473 206.628 334.653 270.641 270.641C334.653 206.628 421.473 170.667 512 170.667V341.333C466.736 341.333 423.327 359.314 391.32 391.32C359.314 423.327 341.333 466.736 341.333 512H170.667Z" fill="#5A3EA3"/>
<path d="M170.667 1024C170.667 933.473 206.629 846.653 270.641 782.641C334.654 718.629 421.473 682.667 512 682.667V853.333C466.737 853.333 423.327 871.314 391.321 903.32C359.315 935.327 341.334 978.736 341.334 1024H170.667Z" fill="#5A3EA3"/>
<path d="M853.333 512C853.333 421.473 817.372 334.653 753.359 270.641C689.347 206.628 602.527 170.667 512 170.667V341.333C557.264 341.333 600.673 359.314 632.68 391.32C664.686 423.327 682.667 466.736 682.667 512H853.333Z" fill="#5A3EA3"/>
<path d="M341.333 512C341.333 421.473 305.372 334.653 241.359 270.641C177.347 206.628 90.5272 170.667 0 170.667V341.333C45.2636 341.333 88.6734 359.314 120.68 391.32C152.686 423.327 170.667 466.736 170.667 512H341.333Z" fill="#5A3EA3"/>
<path d="M170.667 512C170.667 602.527 206.628 689.347 270.641 753.359C334.653 817.372 421.473 853.333 512 853.333V682.667C466.737 682.667 423.327 664.686 391.32 632.68C359.314 600.673 341.333 557.264 341.333 512H170.667Z" fill="#5A3EA3"/>
<path d="M682.667 512C682.667 602.527 718.629 689.347 782.641 753.359C846.653 817.372 933.473 853.333 1024 853.333V682.667C978.736 682.667 935.327 664.686 903.32 632.68C871.314 600.673 853.333 557.264 853.333 512H682.667Z" fill="#5A3EA3"/>
<path d="M853.333 512C853.333 602.527 817.372 689.347 753.359 753.359C689.347 817.372 602.528 853.333 512 853.333V682.667C557.264 682.667 600.673 664.686 632.68 632.68C664.686 600.673 682.667 557.264 682.667 512H853.333Z" fill="#5A3EA3"/>
<path d="M853.333 0C853.333 90.5272 817.372 177.347 753.359 241.359C689.347 305.372 602.527 341.333 512 341.333V170.667C557.264 170.667 600.673 152.686 632.68 120.68C664.686 88.6734 682.667 45.2636 682.667 0H853.333Z" fill="#5A3EA3"/>
<path d="M1489.61 851.603C1438.25 851.603 1391.57 842.852 1349.55 825.349C1308.12 807.847 1274.86 782.468 1249.76 749.213C1225.25 715.374 1213 673.951 1213 624.944H1368.81C1371.73 657.615 1383.98 681.827 1405.57 697.58C1427.17 713.332 1454.01 721.208 1486.11 721.208C1517.62 721.208 1543.59 715.666 1564.01 704.581C1584.44 693.496 1594.65 678.035 1594.65 658.199C1594.65 641.28 1588.52 628.736 1576.27 620.568C1564.01 612.4 1545.34 604.524 1520.24 596.94L1380.19 555.808C1352.76 547.641 1326.79 537.431 1302.28 525.179C1277.78 512.344 1257.93 494.841 1242.76 472.671C1228.17 450.501 1220.88 420.455 1220.88 382.532C1220.88 338.776 1231.38 301.145 1252.39 269.64C1273.4 237.552 1303.16 212.757 1341.67 195.254C1380.19 177.751 1425.42 169 1477.35 169C1552.63 169 1613.61 187.378 1660.3 224.133C1707.57 260.889 1734.7 313.105 1741.7 380.782H1584.14C1571.89 325.357 1534.25 297.644 1471.23 297.644C1440.88 297.644 1417.54 303.479 1401.2 315.147C1385.44 326.816 1377.56 342.568 1377.56 362.404C1377.56 376.99 1382.52 389.242 1392.44 399.16C1402.37 409.078 1418.12 417.246 1439.71 423.663L1585.89 467.42C1641.92 483.756 1682.77 506.218 1708.44 534.805C1734.12 563.393 1746.96 600.732 1746.96 646.822C1746.96 687.662 1736.16 723.542 1714.57 754.463C1693.56 784.801 1663.8 808.722 1625.28 826.224C1586.77 843.144 1541.54 851.603 1489.61 851.603Z" fill="black"/>
<path d="M2054.78 851.603C2004.01 851.603 1959.95 841.102 1922.61 820.098C1885.26 798.512 1856.08 768.174 1835.07 729.085C1814.65 689.412 1804.44 642.738 1804.44 589.063C1804.44 535.389 1814.65 489.007 1835.07 449.917C1855.5 410.828 1884.09 380.49 1920.86 358.904C1958.2 337.317 2001.97 326.524 2052.16 326.524C2104.09 326.524 2148.15 338.192 2184.33 361.529C2221.1 384.866 2248.52 418.704 2266.61 463.044C2285.29 507.384 2293.17 560.768 2290.25 623.194H1947.12C1951.78 660.533 1964.04 689.704 1983.88 710.707C2003.72 731.71 2029.4 742.212 2060.91 742.212C2086.59 742.212 2107.59 736.086 2123.93 723.834C2140.27 710.999 2150.49 695.538 2154.57 677.452H2286.75C2280.91 713.624 2267.2 744.837 2245.61 771.091C2224.6 796.762 2197.75 816.598 2165.07 830.6C2132.4 844.602 2095.63 851.603 2054.78 851.603ZM2053.03 435.04C2024.44 435.04 2000.8 444.375 1982.13 463.044C1963.46 481.13 1951.78 505.634 1947.12 536.556H2150.19C2147.86 499.8 2137.06 473.838 2117.81 458.669C2098.55 442.916 2076.96 435.04 2053.03 435.04Z" fill="black"/>
<path d="M2360.67 838.476V549.683C2360.67 477.922 2379.92 422.788 2418.44 384.283C2457.54 345.777 2513.27 326.524 2585.63 326.524C2593.21 326.524 2605.18 327.107 2621.52 328.274C2637.86 328.858 2654.2 330.899 2670.54 334.4V456.043C2659.45 454.293 2648.94 452.835 2639.02 451.668C2629.1 449.917 2618.02 449.042 2605.76 449.042C2587.67 449.042 2570.75 451.668 2554.99 456.919C2539.23 462.169 2526.4 472.087 2516.48 486.673C2507.14 501.259 2502.47 522.553 2502.47 550.558V838.476H2360.67Z" fill="black"/>
<path d="M2809.09 996L2885.25 802.596L2700.55 339.651H2849.36L2959.65 616.193L3069.07 339.651H3217L2957.02 996H2809.09Z" fill="black"/>
</svg>
