<svg width="200" height="200" viewBox="0 0 200 200" fill="none" xmlns="http://www.w3.org/2000/svg">
<path d="M33.3327 66.6673C14.9307 66.6673 0 51.7424 0 33.3327C0 14.923 14.9307 0 33.3327 0C51.7405 0 66.6654 14.9249 66.6654 33.3327C66.6654 51.7404 81.5923 66.6673 100 66.6673C118.408 66.6673 133.333 51.7424 133.333 33.3346C133.333 14.9269 148.26 0 166.667 0C185.075 0 200 14.9249 200 33.3327C200 51.7404 185.075 66.6654 166.667 66.6654C111.433 66.6654 66.6673 111.45 66.6673 166.663C66.6673 185.062 51.7424 199.996 33.3346 199.996C14.9269 199.996 0 185.075 0 166.667C0 148.26 14.9249 133.333 33.3327 133.333C51.7405 133.333 66.6616 118.408 66.6616 100C66.6616 81.5922 51.7424 66.6673 33.3327 66.6673Z" fill="url(#paint0_linear_2374_449)"/>
<path d="M91.6667 145.832C91.6667 115.9 115.913 91.665 145.835 91.665C175.758 91.6669 200 115.9 200 145.832C200 175.75 175.758 200 145.831 200C115.909 200 91.6667 175.75 91.6667 145.832Z" fill="url(#paint1_linear_2374_449)"/>
<defs>
<linearGradient id="paint0_linear_2374_449" x1="100" y1="0" x2="100" y2="199.996" gradientUnits="userSpaceOnUse">
<stop stop-color="#F09FFF"/>
<stop offset="1" stop-color="#7825EB"/>
</linearGradient>
<linearGradient id="paint1_linear_2374_449" x1="145.833" y1="91.665" x2="145.833" y2="200" gradientUnits="userSpaceOnUse">
<stop stop-color="#F09FFF"/>
<stop offset="1" stop-color="#7825EB"/>
</linearGradient>
</defs>
</svg>
